<?xml version="1.0" encoding="UTF-8"?>
<svg width="752pt" height="752pt" version="1.1" viewBox="0 0 752 752" xmlns="http://www.w3.org/2000/svg">
 <path d="m283.65 450.36c5.2109 0 9.4727-4.2617 9.4727-9.4727v-134.5l168.59 168.59c1.8945 1.8945 4.2617 2.8398 6.6289 2.8398 2.3672 0 4.7344-0.94531 6.6289-2.8398 3.7891-3.7891 3.7891-9.4727 0-13.262l-168.59-168.59h134.02c5.2109 0 9.4727-4.2617 9.4727-9.4727 0-5.2109-4.2617-9.4727-9.4727-9.4727h-157.23-1.8945-0.47266c-0.47266 0-0.94531 0-1.4219 0.47266 0 0-0.47266 0-0.47266 0.47266-0.47266 0-0.94531 0.47266-0.94531 0.47266-0.47266 0.47266-0.94531 0.94531-1.4219 1.4219-0.47266 0.47266-0.94531 0.94531-1.4219 1.4219 0 0.47266-0.47266 0.47266-0.47266 0.94531 0 0.47266-0.47266 0.47266-0.47266 0.47266 0 0.47266-0.47266 0.94531-0.47266 1.4219v0.47266 1.8945 157.23c0.46875 5.2109 4.7344 9.4766 9.9414 9.4766z"/>
</svg>
